<?xml version="1.0" encoding="UTF-8" standalone="no"?>
<!-- Created with Inkscape (http://www.inkscape.org/) -->

<svg
   width="91.758392mm"
   height="128.3723mm"
   viewBox="0 0 91.758392 128.3723"
   version="1.1"
   id="svg1"
   xmlns="http://www.w3.org/2000/svg"
   xmlns:svg="http://www.w3.org/2000/svg">
  <defs
     id="defs1">
    <clipPath
       clipPathUnits="userSpaceOnUse"
       id="clipPath8">
      <path
         d="m 17.637873,70.864573 c 2.029264,-4.05854 10.146314,-12.465481 11.305893,-11.595804 0.57979,0.869701 2.319157,122.625461 2.029264,139.439351 -0.289897,11.30589 -0.579789,16.81388 -1.159578,17.68358 -0.579791,0.28989 -3.188843,4.34842 -6.08803,8.69683 -9.566526,15.94423 -8.696843,19.42294 -7.826916,-30.43894 0,-24.06125 0.579788,-44.64376 0.869684,-45.80336 0,-1.15957 0,-17.97345 -0.579789,-37.39641 L 15.028823,75.502884 Z M 45.757657,227.1178 c 6.377684,-0.57978 13.914704,-0.86967 16.523998,-0.86967 3.18884,0 6.087548,-0.8697 8.986735,-2.31917 2.319158,-0.8697 6.377441,-2.31916 8.986735,-2.60906 2.60905,-0.28989 7.247123,-0.57978 10.146314,-0.86968 l 5.797651,-0.28989 -2.029261,3.18884 c -0.869686,1.73936 -3.76839,6.37767 -6.087548,10.43622 -2.029261,3.76863 -4.058766,6.95745 -4.058766,7.24737 -0.289897,0 -4.058287,0.28987 -8.986496,0.86968 -4.638311,0 -10.436206,0.86967 -12.755364,1.44946 -2.319158,0.2899 -10.146314,1.15957 -17.683573,2.02926 -14.78463,1.15959 -21.452451,1.44948 -21.452451,0.86969 0,-0.57978 2.609295,-4.34841 5.508242,-9.56653 l 5.218105,-8.69684 z M 86.922458,105.36202 c 0.57979,-0.57977 9.276632,-1.44946 23.771612,-2.02925 15.36441,0 24.93094,-0.86968 28.69933,-1.73938 3.18908,-0.86968 6.37792,-1.44946 7.24761,-1.44946 0.86968,0 -4.05853,6.37769 -9.56653,13.04527 l -2.31916,2.60903 -16.52399,1.73938 c -8.98674,0.57979 -19.133053,1.15958 -22.612029,1.15958 H 89.24186 l -1.739369,-6.0878 c -0.869682,-4.63829 -1.159579,-6.66756 -0.579789,-7.24737 z m 51.311362,67.54549 c -1.15958,0.86967 -4.05829,6.08777 -6.66758,10.43619 -2.60881,4.92821 -5.21786,8.98675 -5.79765,9.56653 -0.2899,0.57979 -5.21835,1.44947 -10.43621,1.73936 l -9.27663,0.57981 -1.73937,-7.24737 c -0.57979,-4.34843 -1.15958,-9.27664 -1.15958,-11.30589 v -3.76863 h 5.50824 c 5.50776,0 27.2501,-2.31917 30.14881,-3.18887 2.02926,-0.57978 2.02926,0.57981 -0.57979,3.18887 z M 4.8822665,251.46895 c 0.2898947,1.73938 1.739368,4.34842 2.8991883,5.50799 2.0292628,1.73938 2.8989472,2.02927 6.0875472,1.73938 5.218345,-0.57979 21.452447,-2.31916 32.758337,-3.18885 5.508002,-0.57978 15.074527,-1.44946 21.16207,-2.31914 11.016244,-1.44948 11.016244,-1.44948 13.045505,0.28989 4.34818,4.63831 7.247367,2.31915 15.943966,-14.20484 7.53726,-15.07452 8.69684,-17.68358 6.95747,-20.58252 -0.86968,-1.73938 -0.86968,-11.016 0,-12.46548 0.2899,-0.2899 6.37793,-0.86968 13.3354,-1.15957 11.88568,-0.57979 12.46547,-0.86969 15.07428,-3.18885 1.73937,-1.44946 4.92845,-6.37769 6.95747,-11.016 2.60906,-4.9282 6.66782,-11.30589 9.56653,-14.49474 6.08803,-6.66758 10.14631,-13.04525 10.14631,-15.36441 0,-0.86968 1.44947,-3.18884 2.6093,-5.2181 2.60905,-3.76863 2.60905,-3.76863 2.60905,-20.00273 0.28989,-16.23411 0.28989,-16.524 -1.44948,-18.84315 -2.02926,-1.73938 -2.89919,-2.02927 -7.82715,-1.44949 -3.18884,0 -5.50824,0 -5.50824,-0.28989 0,-0.28989 1.73936,-2.60906 3.76887,-5.2181 1.44947,-2.60906 4.63807,-6.66758 6.66733,-9.85642 l 3.18909,-5.797889 -1.73937,-16.524008 c -0.86968,-8.98673 -1.44947,-22.031982 -2.31916,-29.279349 l -0.28989,-12.755378 -12.46523,0.289893 c -7.24761,0 -14.20508,0.579803 -17.39368,1.739377 -6.95772,1.449467 -25.51098,1.449467 -40.585256,-0.579785 C 77.935967,36.077199 73.587787,36.077199 54.454738,36.657002 42.27892,37.236791 32.132609,38.396361 30.97303,38.396361 c -0.869685,0.289897 -2.898706,2.898952 -4.92797,5.797904 -1.739367,2.609042 -6.087786,7.827156 -9.566522,11.595786 -3.47898,3.478718 -7.5372629,8.696837 -8.9867362,11.595785 l -2.6092936,4.638311 0.2898948,26.38042 c 0.2898947,14.204823 0.2898947,26.380413 0.579789,26.670303 0.5797891,0.2899 0,28.40968 -0.579789,61.74757 -0.2898948,33.91768 -0.5797895,62.90713 -0.2898948,64.64651 z"
         id="path8"
         style="font-family:'Playful Boxes';-inkscape-font-specification:'Playful Boxes';white-space:pre;stroke-width:420.227;stroke-linejoin:bevel;paint-order:stroke markers fill"
         aria-label="F&#10;" />
    </clipPath>
  </defs>
  <g
     id="layer1"
     transform="translate(-6.1487265,-132.6947)">
    <g
       id="g3"
       transform="matrix(0.57559098,0,0,0.57559098,3.4075153,112.09584)"
       clip-path="url(#clipPath8)">
      <ellipse
         style="fill:#ff9900;fill-opacity:1;stroke-width:12.7845;stroke-linejoin:bevel;paint-order:stroke markers fill"
         id="path2"
         cx="54.457428"
         cy="-0.4164452"
         rx="167.72148"
         ry="135.33388" />
      <ellipse
         style="fill:#ffdc00;fill-opacity:1;stroke-width:10.936;stroke-linejoin:bevel;paint-order:stroke markers fill"
         id="path3"
         cx="85.463753"
         cy="183.63766"
         rx="97.956131"
         ry="107.85069" />
      <ellipse
         style="fill:#0010ff;fill-opacity:1;stroke-width:6.05857;stroke-linejoin:bevel;paint-order:stroke markers fill"
         id="path1"
         cx="112.69942"
         cy="246.09946"
         rx="108.5353"
         ry="97.023987" />
    </g>
  </g>
</svg>
